<?xml version="1.0" encoding="iso-8859-1"?>
<!-- Generator: Adobe Illustrator 18.1.1, SVG Export Plug-In . SVG Version: 6.00 Build 0)  -->
<svg xmlns="http://www.w3.org/2000/svg" xmlns:xlink="http://www.w3.org/1999/xlink" version="1.1" id="Capa_1" x="0px" y="0px" viewBox="0 0 309.292 309.292" style="enable-background:new 0 0 309.292 309.292;" xml:space="preserve" width="512px" height="512px">
<g>
	<path d="M216.883,45.258h-91.311V21.756C125.572,9.741,117.903,0,108.444,0   C98.98,0,91.311,9.741,91.311,21.756v23.616C75.162,45.96,62.234,59.15,62.234,75.44v203.677c0,16.66,13.511,30.176,30.176,30.176   h124.473c16.66,0,30.176-13.511,30.176-30.176V75.44C247.053,58.775,233.543,45.258,216.883,45.258z M185.76,277.235h-62.228   V256.49h62.228V277.235z M207.451,222.539H101.836V99.954h105.616V222.539z" fill="#D80027"/>
</g>
<g>
</g>
<g>
</g>
<g>
</g>
<g>
</g>
<g>
</g>
<g>
</g>
<g>
</g>
<g>
</g>
<g>
</g>
<g>
</g>
<g>
</g>
<g>
</g>
<g>
</g>
<g>
</g>
<g>
</g>
</svg>
